<svg width="32" height="32" viewBox="0 0 32 32" fill="none" xmlns="http://www.w3.org/2000/svg">
<path d="M32 18.8937C32 21.0994 30.1881 22.8881 27.9825 22.8881C25.5563 22.8881 22.4388 21.4663 20.3325 20.3306C21.4681 22.4369 22.89 25.5538 22.89 27.9806C22.89 30.1863 21.1019 31.975 18.8956 31.975C17.7644 31.975 16.7425 31.505 16.015 30.7481C15.6411 31.1441 15.1902 31.4594 14.69 31.6747C14.1898 31.8899 13.6508 32.0007 13.1062 32C10.9006 32 9.11187 30.1881 9.11187 27.9825C9.11187 25.5563 10.5338 22.4388 11.6694 20.3325C9.56313 21.4681 6.44625 22.89 4.01937 22.89C1.81375 22.89 0.025 21.1019 0.025 18.8956C0.025 17.7644 0.495 16.7425 1.25188 16.015C0.47975 15.2875 0 14.25 0 13.1062C0 10.9006 1.81187 9.11187 4.0175 9.11187C6.44375 9.11187 9.56125 10.5338 11.6675 11.6694C10.5312 9.50625 9.1125 6.44375 9.1125 4.0175C9.1125 1.81187 10.9006 0.023125 13.1069 0.023125C14.2381 0.023125 15.26 0.493125 15.9875 1.25C16.7125 0.47975 17.6937 0 18.8937 0C21.0994 0 22.8881 1.81187 22.8881 4.0175C22.8881 6.44375 21.4663 9.56125 20.3306 11.6675C22.4369 10.5319 25.5538 9.11 27.9806 9.11C30.1863 9.11 31.975 10.8981 31.975 13.1044C31.975 14.2356 31.505 15.2575 30.7481 15.985C31.5188 16.7125 32 17.6937 32 18.8937Z" fill="#111827"/>
</svg>
